<svg xmlns="http://www.w3.org/2000/svg" viewBox="0 0 128 128"><path d="M51.215 49.023V38.668c0-.875.332-1.527 1.09-1.961l20.832-11.992c2.832-1.64 6.215-2.399 9.699-2.399 13.082 0 21.375 10.137 21.375 20.934 0 .762 0 1.633-.11 2.504l-21.59-12.645q-1.962-1.142-3.925 0Zm48.629 40.348v-24.75c0-1.531-.653-2.621-1.957-3.379L70.516 45.32l8.937-5.125c.766-.437 1.422-.437 2.18 0l20.832 11.993c5.996 3.492 10.031 10.902 10.031 18.101 0 8.285-4.906 15.918-12.652 19.082M44.785 67.566l-8.941-5.238c-.766-.433-1.09-1.086-1.09-1.957V36.38c0-11.664 8.941-20.5 21.043-20.5 4.578 0 8.832 1.531 12.426 4.254l-21.477 12.43c-1.305.761-1.96 1.855-1.96 3.382Zm19.246 11.118-12.816-7.192V56.227L64.03 49.03l12.809 7.192v15.27Zm8.23 33.144c-4.581 0-8.831-1.523-12.429-4.246l21.477-12.434c1.312-.765 1.96-1.855 1.96-3.378V60.148l9.055 5.23c.762.442 1.09 1.09 1.09 1.966v23.984c0 11.672-9.05 20.5-21.152 20.5m-25.84-24.312L25.594 75.523c-6-3.488-10.035-10.902-10.035-18.097 0-8.399 5.02-15.922 12.761-19.082v24.863c0 1.523.657 2.613 1.961 3.379L57.54 82.39l-8.937 5.125c-.766.441-1.422.441-2.18 0m-1.203 17.882c-12.32 0-21.367-9.27-21.367-20.718 0-.871.109-1.746.214-2.614l21.48 12.43q1.965 1.149 3.923 0l27.37-15.812v10.359c0 .871-.331 1.527-1.089 1.96L54.926 103c-2.836 1.637-6.215 2.398-9.707 2.398m27.043 12.977c13.195 0 24.203-9.379 26.715-21.809 12.21-3.16 20.058-14.613 20.058-26.277 0-7.633-3.27-15.043-9.156-20.39.547-2.29.871-4.579.871-6.868 0-15.593-12.648-27.261-27.258-27.261-2.941 0-5.777.44-8.613 1.421-4.91-4.8-11.668-7.851-19.082-7.851-13.192 0-24.207 9.375-26.711 21.805C16.87 34.309 9.02 45.754 9.02 57.425c0 7.63 3.27 15.044 9.16 20.384-.547 2.293-.875 4.582-.875 6.87 0 15.594 12.648 27.262 27.261 27.262 2.942 0 5.778-.437 8.614-1.421 4.906 4.8 11.664 7.855 19.082 7.855"/></svg>
